<svg id="Слой_1" data-name="Слой 1" xmlns="http://www.w3.org/2000/svg" viewBox="0 0 112.26 112.13"><defs><style>.cls-1{fill:#81f2a9;}.cls-2{fill:#55bf78;}.cls-3{fill:#075b35;}.cls-4{fill:none;}</style></defs><title>favicon-main</title><path class="cls-1" d="M75,41.11V61.26L26.65,78a100.34,100.34,0,0,1-5.57-18.23Z" transform="translate(-18.87 -18.93)"/><path class="cls-1" d="M75,76.14V96.27L44.54,106.79A101.9,101.9,0,0,1,32.92,90.66Z" transform="translate(-18.87 -18.93)"/><path class="cls-1" d="M75,18.93v8.3L19.22,46.48c-.25-3.13-.36-6.27-.35-9.41a85.94,85.94,0,0,1,.36-9.68A1.75,1.75,0,0,1,20,26.08l1.56-.54a227,227,0,0,1,40.26-6.39C64,19,69.51,18.93,75,18.93Z" transform="translate(-18.87 -18.93)"/><path class="cls-2" d="M131.13,37.07a114,114,0,0,1-.61,12.27L87.62,64.82V44.67L131,29.05C131.17,31.7,131,34.33,131.13,37.07Z" transform="translate(-18.87 -18.93)"/><polygon class="cls-3" points="68.75 25.74 68.75 45.88 56.14 42.32 56.14 22.18 68.75 25.74"/><polygon class="cls-3" points="68.75 60.76 68.75 80.9 56.14 77.34 56.14 57.2 68.75 60.76"/><path class="cls-2" d="M127.63,65.27a102.77,102.77,0,0,1-8,20.66c-.5,1-1,2-1.56,2.91l-30.49,11V79.7Z" transform="translate(-18.87 -18.93)"/><path class="cls-1" d="M75,111.15v19.92h0a3.16,3.16,0,0,1-1.62-.53A130.66,130.66,0,0,1,55.7,117.82Z" transform="translate(-18.87 -18.93)"/><path class="cls-3" d="M87.62,114.71v8.45a131.7,131.7,0,0,1-11,7.38,3.13,3.13,0,0,1-1.61.53V111.15Z" transform="translate(-18.87 -18.93)"/><path class="cls-2" d="M103.47,109a116.52,116.52,0,0,1-15.85,14.15v-8.45Z" transform="translate(-18.87 -18.93)"/><path class="cls-3" d="M87.62,19.13V30.78L75,27.23v-8.3C80.08,18.93,85.14,19,87.62,19.13Z" transform="translate(-18.87 -18.93)"/><path class="cls-2" d="M111.9,22,87.62,30.78V19.13l.57,0A216.48,216.48,0,0,1,111.9,22Z" transform="translate(-18.87 -18.93)"/><path class="cls-4" d="M75,27.23,19.22,46.48c-.25-3.13-.36-6.27-.35-9.41a85.94,85.94,0,0,1,.36-9.68A1.75,1.75,0,0,1,20,26.08a2.59,2.59,0,0,1,.9-.38l.66-.16a227,227,0,0,1,40.26-6.39c2.2-.14,7.7-.22,13.2-.22,5.07,0,10.13.06,12.61.2l.57,0A216.48,216.48,0,0,1,111.9,22L87.62,30.78Z" transform="translate(-18.87 -18.93)"/><path class="cls-4" d="M87.62,114.71l15.85-5.7a116.52,116.52,0,0,1-15.85,14.15,131.7,131.7,0,0,1-11,7.38,3.13,3.13,0,0,1-1.61.53h0a3.16,3.16,0,0,1-1.62-.53A130.66,130.66,0,0,1,55.7,117.82L75,111.15Z" transform="translate(-18.87 -18.93)"/><path class="cls-4" d="M127.63,65.27a102.77,102.77,0,0,1-8,20.66c-.5,1-1,2-1.56,2.91l-30.49,11L75,96.27,44.54,106.79A101.9,101.9,0,0,1,32.92,90.66L75,76.14,87.62,79.7Z" transform="translate(-18.87 -18.93)"/><path class="cls-4" d="M131.13,37.07a114,114,0,0,1-.61,12.27L87.62,64.82,75,61.26,26.65,78a100.34,100.34,0,0,1-5.57-18.23L75,41.11l12.61,3.56L131,29.05C131.17,31.7,131,34.33,131.13,37.07Z" transform="translate(-18.87 -18.93)"/></svg>