<svg id="Слой_1" data-name="Слой 1" xmlns="http://www.w3.org/2000/svg" viewBox="0 0 370.18 91.41"><defs><style>.cls-1{fill:#f2f2f2;}.cls-2{fill:#c4c4c4;}.cls-3{fill:#727272;}</style></defs><title>horizontal-logo-white</title><path class="cls-1" d="M65.67,37.37V53.8L26.24,67.39a82.71,82.71,0,0,1-4.53-14.84Z" transform="translate(-19.91 -19.3)"/><path class="cls-1" d="M65.67,65.93V82.35L40.84,90.92a83,83,0,0,1-9.49-13.16Z" transform="translate(-19.91 -19.3)"/><path class="cls-1" d="M65.67,19.3v6.75L20.19,41.74q-.3-3.83-.28-7.68a70.94,70.94,0,0,1,.29-7.88,1.42,1.42,0,0,1,.61-1.07h0l1.25-.43h0l0,0a187.5,187.5,0,0,1,32.79-5.19C56.71,19.35,61.19,19.3,65.67,19.3Z" transform="translate(-19.91 -19.3)"/><path class="cls-2" d="M111.43,34.06a95.23,95.23,0,0,1-.49,10L76,56.69V40.27l35.33-12.73C111.47,29.68,111.36,31.85,111.43,34.06Z" transform="translate(-19.91 -19.3)"/><polygon class="cls-3" points="56.04 20.98 56.04 37.4 45.76 34.5 45.76 18.08 56.04 20.98"/><polygon class="cls-3" points="56.04 49.53 56.04 65.95 45.76 63.05 45.76 46.63 56.04 49.53"/><path class="cls-2" d="M108.57,57.06a83.5,83.5,0,0,1-6.48,16.86c-.41.78-.83,1.57-1.26,2.35L76,85.24V68.82Z" transform="translate(-19.91 -19.3)"/><path class="cls-1" d="M65.67,94.48V110.7a2.49,2.49,0,0,1-1.32-.43A104.71,104.71,0,0,1,49.93,99.9Z" transform="translate(-19.91 -19.3)"/><path class="cls-3" d="M76,97.37v6.9q-4.23,3.15-9,6a2.51,2.51,0,0,1-1.32.43V94.48Z" transform="translate(-19.91 -19.3)"/><path class="cls-2" d="M88.89,92.7A93.85,93.85,0,0,1,76,104.27v-6.9Z" transform="translate(-19.91 -19.3)"/><path class="cls-3" d="M76,19.44V29l-10.28-2.9V19.3C69.8,19.3,73.92,19.33,76,19.44Z" transform="translate(-19.91 -19.3)"/><path class="cls-2" d="M95.78,21.8,76,29V19.44l.47,0A179.83,179.83,0,0,1,95.78,21.8Z" transform="translate(-19.91 -19.3)"/><path class="cls-1" d="M164.14,52.77H143.75v7.4l23.78-.12v5.5H136.91V35.61h30.62l0,5.51H143.75v6.19h20.39Z" transform="translate(-19.91 -19.3)"/><path class="cls-1" d="M199.72,37a16,16,0,0,1,6.61,5.62,14.34,14.34,0,0,1,2.39,8.1,14.1,14.1,0,0,1-2.39,8,16.33,16.33,0,0,1-6.59,5.6,22.81,22.81,0,0,1-18.86,0,17.12,17.12,0,0,1-6.79-5.62,13.63,13.63,0,0,1-2.51-8,13.82,13.82,0,0,1,2.51-8.06A17,17,0,0,1,180.87,37a21.39,21.39,0,0,1,9.36-2A21.69,21.69,0,0,1,199.72,37Zm-3.91,22.62a10.24,10.24,0,0,0,4.25-3.46,9.88,9.88,0,0,0,0-10.87,10.57,10.57,0,0,0-4.29-3.52,13.4,13.4,0,0,0-5.6-1.21,13.67,13.67,0,0,0-5.77,1.21,10,10,0,0,0-4.14,3.48,9.33,9.33,0,0,0-1.54,5.38,9.31,9.31,0,0,0,1.6,5.49,10.18,10.18,0,0,0,4.23,3.48,13.69,13.69,0,0,0,5.7,1.19A13.55,13.55,0,0,0,195.81,59.61Z" transform="translate(-19.91 -19.3)"/><path class="cls-1" d="M243.13,58.27a14.26,14.26,0,0,1-5.95,5.34,19.61,19.61,0,0,1-9,1.94H213.33V35.61h14.85a20,20,0,0,1,9,1.93,14.13,14.13,0,0,1,5.95,5.34,14.57,14.57,0,0,1,2.08,7.74A14.3,14.3,0,0,1,243.13,58.27Zm-14.38,1.34a10.38,10.38,0,0,0,7-2.33,8.32,8.32,0,0,0,2.71-6.66,8.51,8.51,0,0,0-1.28-4.51,9.09,9.09,0,0,0-3.5-3.29,10.12,10.12,0,0,0-4.93-1.22h-8.58v18Z" transform="translate(-19.91 -19.3)"/><path class="cls-1" d="M297.2,65.59h-7.69l-1.66-1.37A21.93,21.93,0,0,1,279.08,66a32.34,32.34,0,0,1-7.67-.91,15,15,0,0,1-6.11-2.9,6.12,6.12,0,0,1-2.41-4.93A5,5,0,0,1,265,53a19.93,19.93,0,0,1,6-2.75,25.82,25.82,0,0,1-3.27-3.38,5.18,5.18,0,0,1-1.22-3.21,6.89,6.89,0,0,1,1.86-5,10.35,10.35,0,0,1,4.68-2.73,21,21,0,0,1,5.84-.81,16.57,16.57,0,0,1,6.23,1A8.7,8.7,0,0,1,289,38.83a6,6,0,0,1,1.25,3.62,5.89,5.89,0,0,1-1.52,4.19,10.29,10.29,0,0,1-3.7,2.53,54.11,54.11,0,0,1-5.7,1.86h.28l9.06,7.48a9.51,9.51,0,0,0,3-7.44h5.18a13.24,13.24,0,0,1-4.54,10.48ZM284,61l-10-8.29a8.87,8.87,0,0,0-2.9,1.88,3.7,3.7,0,0,0-1,2.65,2.88,2.88,0,0,0,1.32,2.3,9.42,9.42,0,0,0,3.4,1.58,16.23,16.23,0,0,0,4.31.57A16.7,16.7,0,0,0,284,61Zm-7.36-12.34a21.07,21.07,0,0,0,5.46-2.22,3.66,3.66,0,0,0,1.9-3.2,4,4,0,0,0-1.46-3.14,5.88,5.88,0,0,0-3.92-1.23,6.37,6.37,0,0,0-4.09,1.23A4.12,4.12,0,0,0,273,43.46Q273,45.61,276.61,48.64Z" transform="translate(-19.91 -19.3)"/><path class="cls-1" d="M341,65.47l-8.3-9.67H322v9.67h-6.72V35.53h21.16a16.55,16.55,0,0,1,6.66,1.26,10.41,10.41,0,0,1,4.49,3.5,8.69,8.69,0,0,1,1.6,5.2v.16A9.15,9.15,0,0,1,346.94,52a11.19,11.19,0,0,1-6.21,3.36l8.7,10.11Zm.42-23a3.6,3.6,0,0,0-2.2-1.29,22.54,22.54,0,0,0-3.77-.25c-.73,0-1.35,0-1.86.05q-5.46.12-11.61.12v9.34h13.47a24.34,24.34,0,0,0,3.77-.22,3.64,3.64,0,0,0,2.2-1.21,4.76,4.76,0,0,0,.87-3.18A5.24,5.24,0,0,0,341.44,42.45Z" transform="translate(-19.91 -19.3)"/><path class="cls-1" d="M355.72,42.53a16.83,16.83,0,0,1,6.8-5.64,22.07,22.07,0,0,1,9.57-2A20.15,20.15,0,0,1,383.48,38a16.25,16.25,0,0,1,6.61,8.88l-7.12,0a8.16,8.16,0,0,0-2.61-3.54,13.23,13.23,0,0,0-4.07-2.22,13,13,0,0,0-4.16-.75,14.21,14.21,0,0,0-5.67,1.19A11.19,11.19,0,0,0,362,45.14a8.85,8.85,0,0,0-1.76,5.48,9.07,9.07,0,0,0,1.66,5.49,10.59,10.59,0,0,0,4.39,3.48,14.62,14.62,0,0,0,5.89,1.19,12.56,12.56,0,0,0,6.13-1.66,10.88,10.88,0,0,0,4.55-4.73h7.28a16.57,16.57,0,0,1-6.7,8.86,20.19,20.19,0,0,1-11.3,3.11,22,22,0,0,1-9.55-2.06,16.9,16.9,0,0,1-6.82-5.67,14.26,14.26,0,0,1,0-16.1Z" transform="translate(-19.91 -19.3)"/><path class="cls-2" d="M158,83.2,152.8,94a1.91,1.91,0,0,1-1.33,1,9.73,9.73,0,0,1-2.34.23l0-2a2.93,2.93,0,0,0,1-.13.45.45,0,0,0,.3-.4,1,1,0,0,0-.12-.43l-.15-.31-4.53-8.7h2.27l4,8.41,3.7-8.41Z" transform="translate(-19.91 -19.3)"/><path class="cls-2" d="M166.15,83.44a4.92,4.92,0,0,1,2,1.7,4.48,4.48,0,0,1,0,4.87,4.92,4.92,0,0,1-2,1.7,6.58,6.58,0,0,1-2.85.61,6.72,6.72,0,0,1-2.84-.62A5.29,5.29,0,0,1,158.34,90a4.09,4.09,0,0,1,0-4.83,5.33,5.33,0,0,1,2.11-1.71,6.67,6.67,0,0,1,2.85-.62A6.44,6.44,0,0,1,166.15,83.44Zm-.33,6.63a3,3,0,0,0,1-2.49,3,3,0,0,0-1-2.5,3.94,3.94,0,0,0-2.5-.8,4.75,4.75,0,0,0-1.79.34,3,3,0,0,0-1.39,1.08,3.54,3.54,0,0,0,0,3.76,3.16,3.16,0,0,0,1.38,1.07,4.76,4.76,0,0,0,1.8.34A3.94,3.94,0,0,0,165.82,90.07Z" transform="translate(-19.91 -19.3)"/><path class="cls-2" d="M177.8,83.2h2V92h-2V90.77a5,5,0,0,1-4,1.5A3.38,3.38,0,0,1,171.06,91a6.79,6.79,0,0,1-1-4.21V83.2h2v3.58a6.26,6.26,0,0,0,.55,2.78,2.28,2.28,0,0,0,2.27,1.12,2.36,2.36,0,0,0,2.34-1.14,6.42,6.42,0,0,0,.57-2.88Z" transform="translate(-19.91 -19.3)"/><path class="cls-2" d="M183.25,84.55a4.05,4.05,0,0,1,1.53-1,8.5,8.5,0,0,1,2.18-.47v2h-1.78a1.6,1.6,0,0,0-1.5.63,3.33,3.33,0,0,0-.4,1.73V92h-2V83.2h1.67Z" transform="translate(-19.91 -19.3)"/><path class="cls-2" d="M199.92,86.92a11.77,11.77,0,0,1,2,.16,2.8,2.8,0,0,1,1.43.7,2.09,2.09,0,0,1,.57,1.59,2.36,2.36,0,0,1-.84,2,4,4,0,0,1-1.9.83,15.75,15.75,0,0,1-2.38.17,9.7,9.7,0,0,1-3.67-.67,2.52,2.52,0,0,1-1.68-2.57l2,0a1.37,1.37,0,0,0,1,1.29,6,6,0,0,0,2.31.41,6.65,6.65,0,0,0,2.5-.32,1.06,1.06,0,0,0,.71-1,.91.91,0,0,0-.76-.93,6.81,6.81,0,0,0-1.89-.22h-.71a10,10,0,0,1-3.66-.63,2.18,2.18,0,0,1-1.54-2.17,2.12,2.12,0,0,1,1.6-2.2,11.76,11.76,0,0,1,3.68-.52,9.35,9.35,0,0,1,3.6.66A2.51,2.51,0,0,1,204,86.07l-2,0a1.38,1.38,0,0,0-1.1-1.4,7.06,7.06,0,0,0-2.09-.34,9.48,9.48,0,0,0-2.33.24c-.62.16-.93.5-.93,1a1.11,1.11,0,0,0,.79,1,6.38,6.38,0,0,0,2.44.35Z" transform="translate(-19.91 -19.3)"/><path class="cls-2" d="M214.28,83.59a2.76,2.76,0,0,1,1.61,2.72V92H214.1l-.22-1.69a2.29,2.29,0,0,1-.95.89,6.18,6.18,0,0,1-1.72.69,8.39,8.39,0,0,1-2.07.26,8.18,8.18,0,0,1-2.69-.52A2.14,2.14,0,0,1,205,89.35a2.29,2.29,0,0,1,.63-1.74,2.91,2.91,0,0,1,1.37-.79,5.18,5.18,0,0,1,1.32-.19c1.86,0,3.14,0,3.86,0a4.6,4.6,0,0,0,1.39-.18.51.51,0,0,0,.34-.49v-.14a1,1,0,0,0-.48-.75,3.58,3.58,0,0,0-1.21-.56,6,6,0,0,0-1.61-.21,6,6,0,0,0-2.47.41,1.44,1.44,0,0,0-1,1.4h-2a2.42,2.42,0,0,1,.88-2,5,5,0,0,1,2.15-1,11.24,11.24,0,0,1,2.51-.29A8.24,8.24,0,0,1,214.28,83.59ZM213,89.44a3,3,0,0,0,.86-2.08,5.93,5.93,0,0,1-3.22.59c-.89,0-1.58,0-2.07.08a2.57,2.57,0,0,0-1.09.32.84.84,0,0,0-.38.68,1.19,1.19,0,0,0,.67,1,4.48,4.48,0,0,0,2.11.35A4.2,4.2,0,0,0,213,89.44Z" transform="translate(-19.91 -19.3)"/><path class="cls-2" d="M223.19,83.94v1.69h-2V92h-2V85.63h-1.92V83.94h1.92v-.87a3.08,3.08,0,0,1,.93-2.61,3.49,3.49,0,0,1,2.11-.69,4.07,4.07,0,0,1,.73.06v2a3.78,3.78,0,0,0-1.15.13.75.75,0,0,0-.47.56,6.2,6.2,0,0,0-.14,1.44Z" transform="translate(-19.91 -19.3)"/><path class="cls-2" d="M235.48,87.71h-9.15a3.38,3.38,0,0,0,.47,1.54A3.12,3.12,0,0,0,228,90.42a4.11,4.11,0,0,0,2,.45,4.24,4.24,0,0,0,1.79-.36A3.32,3.32,0,0,0,233,89.6a1.66,1.66,0,0,0,.43-1h2a2.87,2.87,0,0,1-.64,1.71A4.76,4.76,0,0,1,233,91.72a6.82,6.82,0,0,1-2.94.58,6.69,6.69,0,0,1-2.84-.6A5.19,5.19,0,0,1,225.09,90a4.22,4.22,0,0,1-.77-2.48,4.29,4.29,0,0,1,.75-2.5,4.9,4.9,0,0,1,2-1.68,7,7,0,0,1,2.9-.59,6.71,6.71,0,0,1,2.85.58,4.4,4.4,0,0,1,2.62,4.11Zm-7.68-2.88a3.4,3.4,0,0,0-1.23,1.61h6.77a2.94,2.94,0,0,0-1.07-1.61,3.58,3.58,0,0,0-2.23-.62A3.74,3.74,0,0,0,227.8,84.83Z" transform="translate(-19.91 -19.3)"/><path class="cls-2" d="M239.74,83.2h1.67v1.69h-1.67V92h-2V84.89H236V83.2h1.75V81.3l2-1.5Z" transform="translate(-19.91 -19.3)"/><path class="cls-2" d="M254.59,83.2,249.43,94a1.89,1.89,0,0,1-1.32,1,9.76,9.76,0,0,1-2.35.23v-2a2.83,2.83,0,0,0,1-.13c.21-.1.31-.23.31-.4a1,1,0,0,0-.12-.43c-.08-.16-.13-.27-.16-.31l-4.52-8.7h2.27l4,8.41,3.71-8.41Z" transform="translate(-19.91 -19.3)"/><path class="cls-2" d="M263.21,81.77h-2V80.06h2Zm0,.46h-2V92h2Z" transform="translate(-19.91 -19.3)"/><path class="cls-2" d="M270.62,86.92a11.85,11.85,0,0,1,2,.16,2.8,2.8,0,0,1,1.43.7,2.09,2.09,0,0,1,.57,1.59,2.36,2.36,0,0,1-.84,2,4,4,0,0,1-1.91.83,15.52,15.52,0,0,1-2.37.17,9.76,9.76,0,0,1-3.68-.67,2.51,2.51,0,0,1-1.67-2.57l2,0a1.36,1.36,0,0,0,1,1.29,6.11,6.11,0,0,0,2.32.41,6.56,6.56,0,0,0,2.49-.32,1,1,0,0,0,.71-1,.9.9,0,0,0-.76-.93,6.69,6.69,0,0,0-1.88-.22h-.71a10.09,10.09,0,0,1-3.67-.63,2.19,2.19,0,0,1-1.53-2.17,2.12,2.12,0,0,1,1.59-2.2,11.83,11.83,0,0,1,3.69-.52,9.3,9.3,0,0,1,3.59.66,2.51,2.51,0,0,1,1.6,2.56l-2,0a1.37,1.37,0,0,0-1.1-1.4,7,7,0,0,0-2.09-.34,9.39,9.39,0,0,0-2.32.24c-.62.16-.93.5-.93,1a1.12,1.12,0,0,0,.78,1,6.42,6.42,0,0,0,2.44.35Z" transform="translate(-19.91 -19.3)"/><path class="cls-2" d="M289.85,83.44a4.92,4.92,0,0,1,2,1.7,4.48,4.48,0,0,1,0,4.87,4.92,4.92,0,0,1-2,1.7,6.54,6.54,0,0,1-2.84.61,6.73,6.73,0,0,1-2.85-.62A5.36,5.36,0,0,1,282,90a4.09,4.09,0,0,1,0-4.83,5.33,5.33,0,0,1,2.11-1.71,6.71,6.71,0,0,1,2.86-.62A6.4,6.4,0,0,1,289.85,83.44Zm-.33,6.63a3,3,0,0,0,1-2.49,3,3,0,0,0-1-2.5,3.94,3.94,0,0,0-2.5-.8,4.75,4.75,0,0,0-1.79.34,3,3,0,0,0-1.39,1.08,3.54,3.54,0,0,0,0,3.76,3.13,3.13,0,0,0,1.39,1.07,4.67,4.67,0,0,0,1.79.34A3.94,3.94,0,0,0,289.52,90.07Z" transform="translate(-19.91 -19.3)"/><path class="cls-2" d="M301.51,83.2h2V92h-2V90.77a5,5,0,0,1-4,1.5A3.38,3.38,0,0,1,294.76,91a6.79,6.79,0,0,1-1-4.21V83.2h2v3.58a6.26,6.26,0,0,0,.55,2.78,2.28,2.28,0,0,0,2.27,1.12,2.36,2.36,0,0,0,2.34-1.14,6.42,6.42,0,0,0,.58-2.88Z" transform="translate(-19.91 -19.3)"/><path class="cls-2" d="M307,84.55a4.05,4.05,0,0,1,1.53-1,8.5,8.5,0,0,1,2.18-.47v2h-1.78a1.6,1.6,0,0,0-1.5.63,3.43,3.43,0,0,0-.4,1.73V92h-2V83.2h1.67Z" transform="translate(-19.91 -19.3)"/><path class="cls-2" d="M328.2,87.79a5,5,0,0,1-.55,2.18,4.14,4.14,0,0,1-1.47,1.66,3.94,3.94,0,0,1-2.25.64,5.93,5.93,0,0,1-4.25-1.39V95h-2V83.2h1.68l.26,1.29A5.92,5.92,0,0,1,323.93,83a4,4,0,0,1,2.2.61,4.35,4.35,0,0,1,1.51,1.67,5.36,5.36,0,0,1,.56,2.39v.11Zm-3.62,2.57a3.34,3.34,0,0,0,1.12-1.22,3.31,3.31,0,0,0,.39-1.43,3.88,3.88,0,0,0-.36-1.57,3,3,0,0,0-1.08-1.24,3.23,3.23,0,0,0-1.85-.49,2.87,2.87,0,0,0-1.62.46,3.17,3.17,0,0,0-1.11,1.19,3.23,3.23,0,0,0-.39,1.54,3.47,3.47,0,0,0,.39,1.63,3,3,0,0,0,2.73,1.62A3.08,3.08,0,0,0,324.58,90.36Z" transform="translate(-19.91 -19.3)"/><path class="cls-2" d="M331.47,84.55a4.05,4.05,0,0,1,1.53-1,8.5,8.5,0,0,1,2.18-.47v2H333.4a1.6,1.6,0,0,0-1.5.63,3.43,3.43,0,0,0-.4,1.73V92h-2V83.2h1.68Z" transform="translate(-19.91 -19.3)"/><path class="cls-2" d="M338.56,81.77h-2V80.06h2Zm0,.46h-2V92h2Z" transform="translate(-19.91 -19.3)"/><path class="cls-2" d="M348.36,83.44a4.88,4.88,0,0,1,2,1.7,4.53,4.53,0,0,1,0,4.87,4.88,4.88,0,0,1-2,1.7,6.54,6.54,0,0,1-2.84.61,6.66,6.66,0,0,1-2.84-.62A5.22,5.22,0,0,1,340.56,90a4.09,4.09,0,0,1,0-4.83,5.26,5.26,0,0,1,2.11-1.71,6.67,6.67,0,0,1,2.85-.62A6.4,6.4,0,0,1,348.36,83.44ZM348,90.07a3,3,0,0,0,1-2.49,3,3,0,0,0-1-2.5,3.91,3.91,0,0,0-2.49-.8,4.71,4.71,0,0,0-1.79.34,3,3,0,0,0-1.4,1.08,3.54,3.54,0,0,0,0,3.76,3.19,3.19,0,0,0,1.39,1.07,4.69,4.69,0,0,0,1.8.34A3.91,3.91,0,0,0,348,90.07Z" transform="translate(-19.91 -19.3)"/><path class="cls-2" d="M354.25,84.55a4.05,4.05,0,0,1,1.53-1,8.59,8.59,0,0,1,2.18-.47v2h-1.77a1.61,1.61,0,0,0-1.51.63,3.43,3.43,0,0,0-.39,1.73V92h-2V83.2H354Z" transform="translate(-19.91 -19.3)"/><path class="cls-2" d="M361.34,81.77h-2V80.06h2Zm0,.46h-2V92h2Z" transform="translate(-19.91 -19.3)"/><path class="cls-2" d="M366.48,83.2h1.68v1.69h-1.68V92h-2V84.89h-1.76V83.2h1.76V81.3l2-1.5Z" transform="translate(-19.91 -19.3)"/><path class="cls-2" d="M381.34,83.2,376.18,94a1.91,1.91,0,0,1-1.33,1,9.73,9.73,0,0,1-2.34.23l0-2a2.93,2.93,0,0,0,1.05-.13.45.45,0,0,0,.3-.4,1,1,0,0,0-.12-.43l-.15-.31L369,83.2h2.27l4.05,8.41,3.7-8.41Z" transform="translate(-19.91 -19.3)"/></svg>