<svg id="Слой_1" data-name="Слой 1" xmlns="http://www.w3.org/2000/svg" viewBox="0 0 424.62 354.83"><defs><style>.cls-1{fill:#81f2a9;}.cls-2{fill:#55bf78;}.cls-3{fill:#075b35;}.cls-4{fill:none;}</style></defs><title>main-logo-transparent</title><path class="cls-1" d="M300,163.58V200.8l-89.38,30.86A186.21,186.21,0,0,1,200.35,198Z" transform="translate(-87.69 -122.59)"/><path class="cls-1" d="M300,228.3v37.22L243.71,285a190.25,190.25,0,0,1-21.48-29.82Z" transform="translate(-87.69 -122.59)"/><path class="cls-1" d="M300,122.59v15.34L196.91,173.5q-.69-8.67-.65-17.41c.21-6.1-.2-12,.67-17.87a3.16,3.16,0,0,1,1.4-2.42s0,0,0,0a0,0,0,0,0,0,0l2.75-.94.08,0A420.29,420.29,0,0,1,275.62,123C279.69,122.72,289.85,122.59,300,122.59Z" transform="translate(-87.69 -122.59)"/><path class="cls-2" d="M403.74,156.09a211.69,211.69,0,0,1-1.13,22.7l-79.29,28.59V170.16l80.08-28.87C403.81,146.17,403.57,151.05,403.74,156.09Z" transform="translate(-87.69 -122.59)"/><polygon class="cls-3" points="235.63 47.57 235.63 84.79 212.33 78.21 212.33 40.99 235.63 47.57"/><polygon class="cls-3" points="235.63 112.29 235.63 149.52 212.33 142.94 212.33 105.72 235.63 112.29"/><path class="cls-2" d="M397.27,208.23a190,190,0,0,1-14.71,38.18c-.93,1.81-1.89,3.61-2.89,5.38L323.32,272.1V234.88Z" transform="translate(-87.69 -122.59)"/><path class="cls-1" d="M300,293v36.8h0a5.8,5.8,0,0,1-3-1,241.16,241.16,0,0,1-32.68-23.51Z" transform="translate(-87.69 -122.59)"/><path class="cls-3" d="M323.32,299.6v15.62c-6.39,4.79-13.17,9.31-20.33,13.64a5.74,5.74,0,0,1-3,1V293Z" transform="translate(-87.69 -122.59)"/><path class="cls-2" d="M352.62,289.05a214.67,214.67,0,0,1-29.3,26.17V299.6Z" transform="translate(-87.69 -122.59)"/><path class="cls-3" d="M323.32,122.94v21.55L300,137.93V122.59C309.39,122.59,318.74,122.7,323.32,122.94Z" transform="translate(-87.69 -122.59)"/><path class="cls-2" d="M368.2,128.32l-44.88,16.17V122.94l1.06,0A400.2,400.2,0,0,1,368.2,128.32Z" transform="translate(-87.69 -122.59)"/><path class="cls-4" d="M300,137.93,196.91,173.5q-.69-8.67-.65-17.41c.21-6.1-.2-12,.67-17.87a3.16,3.16,0,0,1,1.4-2.42s0,0,0,0a0,0,0,0,0,0,0,5.38,5.38,0,0,1,1.61-.66c.38-.11.75-.19,1.14-.28l.08,0A420.29,420.29,0,0,1,275.62,123c4.07-.27,14.23-.4,24.4-.4,9.37,0,18.72.11,23.3.35l1.06,0a400.2,400.2,0,0,1,43.82,5.33l-44.88,16.17Z" transform="translate(-87.69 -122.59)"/><path class="cls-4" d="M323.32,299.6l29.3-10.55a214.67,214.67,0,0,1-29.3,26.17c-6.39,4.79-13.17,9.31-20.33,13.64a5.74,5.74,0,0,1-3,1h0a5.8,5.8,0,0,1-3-1,241.16,241.16,0,0,1-32.68-23.51L300,293Z" transform="translate(-87.69 -122.59)"/><path class="cls-4" d="M397.27,208.23a190,190,0,0,1-14.71,38.18c-.93,1.81-1.89,3.61-2.89,5.38L323.32,272.1,300,265.52,243.71,285a190.25,190.25,0,0,1-21.48-29.82L300,228.3l23.3,6.58Z" transform="translate(-87.69 -122.59)"/><path class="cls-4" d="M403.74,156.09a211.69,211.69,0,0,1-1.13,22.7l-79.29,28.59L300,200.8l-89.38,30.86A186.21,186.21,0,0,1,200.35,198L300,163.58l23.3,6.58,80.08-28.87C403.81,146.17,403.57,151.05,403.74,156.09Z" transform="translate(-87.69 -122.59)"/><path class="cls-1" d="M133.36,406.33H99.16v12.42l39.9-.21v9.23H87.69V377.56h51.37l.06,9.23h-40v10.38h34.2Z" transform="translate(-87.69 -122.59)"/><path class="cls-1" d="M193,379.87a26.85,26.85,0,0,1,11.1,9.43,24,24,0,0,1,4,13.57,23.57,23.57,0,0,1-4,13.43,27.38,27.38,0,0,1-11.06,9.4,38.15,38.15,0,0,1-31.62,0,28.53,28.53,0,0,1-11.4-9.43,22.77,22.77,0,0,1-4.21-13.4,23,23,0,0,1,4.21-13.5,28.46,28.46,0,0,1,11.36-9.47,38.3,38.3,0,0,1,31.62,0Zm-6.54,37.93a17.12,17.12,0,0,0,7.12-5.81,16.55,16.55,0,0,0,0-18.21,17.7,17.7,0,0,0-7.19-5.91,22.38,22.38,0,0,0-9.4-2,22.71,22.71,0,0,0-9.66,2,16.74,16.74,0,0,0-7,5.84,17.09,17.09,0,0,0,.1,18.22,17.1,17.1,0,0,0,7.09,5.83,23.64,23.64,0,0,0,18.94,0Z" transform="translate(-87.69 -122.59)"/><path class="cls-1" d="M265.84,415.56a24,24,0,0,1-10,8.95,33.06,33.06,0,0,1-15,3.26h-25V377.56h24.91a33.46,33.46,0,0,1,15.09,3.22,23.78,23.78,0,0,1,10,9,24.44,24.44,0,0,1,3.49,13A24.06,24.06,0,0,1,265.84,415.56Zm-24.12,2.24q7.18,0,11.73-3.91T258,402.73a14.19,14.19,0,0,0-2.14-7.56,15.25,15.25,0,0,0-5.87-5.53,16.92,16.92,0,0,0-8.27-2H227.33v30.2Z" transform="translate(-87.69 -122.59)"/><path class="cls-1" d="M356.52,427.84H343.63l-2.78-2.31a36.82,36.82,0,0,1-14.73,2.92,53.58,53.58,0,0,1-12.86-1.53A25.41,25.41,0,0,1,303,422.07a10.33,10.33,0,0,1-4-8.28,8.39,8.39,0,0,1,3.6-7.12,33.71,33.71,0,0,1,10-4.62,43.12,43.12,0,0,1-5.5-5.66,8.72,8.72,0,0,1-2-5.4,11.56,11.56,0,0,1,3.12-8.38,17.45,17.45,0,0,1,7.84-4.58,35.41,35.41,0,0,1,9.8-1.35,27.76,27.76,0,0,1,10.45,1.73,14.51,14.51,0,0,1,6.38,4.54,10.43,10.43,0,0,1-.44,13.1,17.29,17.29,0,0,1-6.21,4.24,88.05,88.05,0,0,1-9.57,3.12h.48L342.14,416q5.08-4.6,5.08-12.48h8.69q0,10.92-7.6,17.57Zm-22.19-7.74-16.76-13.91a15,15,0,0,0-4.85,3.16,6.17,6.17,0,0,0-1.73,4.44,4.86,4.86,0,0,0,2.21,3.87,16.4,16.4,0,0,0,5.7,2.65,27.56,27.56,0,0,0,7.22.95A28.09,28.09,0,0,0,334.33,420.1ZM322,399.41a35.64,35.64,0,0,0,9.16-3.73,6.14,6.14,0,0,0,3.19-5.36,6.58,6.58,0,0,0-2.44-5.26,9.84,9.84,0,0,0-6.58-2.07,10.62,10.62,0,0,0-6.85,2.07,6.86,6.86,0,0,0-2.58,5.66Q315.88,394.32,322,399.41Z" transform="translate(-87.69 -122.59)"/><path class="cls-1" d="M430,427.63l-13.9-16.21h-18v16.21H386.85V377.42h35.49a27.91,27.91,0,0,1,11.16,2.11A17.49,17.49,0,0,1,441,385.4a14.61,14.61,0,0,1,2.68,8.71v.28A15.35,15.35,0,0,1,439.94,405a18.81,18.81,0,0,1-10.41,5.63l14.59,17Zm.72-38.6a6.08,6.08,0,0,0-3.7-2.17,36.49,36.49,0,0,0-6.31-.41c-1.22,0-2.26,0-3.12.07q-9.16.19-19.48.2v15.67h22.6A40.71,40.71,0,0,0,427,402a6.14,6.14,0,0,0,3.7-2c1-1.1,1.45-2.88,1.45-5.32S431.69,390.2,430.72,389Z" transform="translate(-87.69 -122.59)"/><path class="cls-1" d="M454.67,389.16a28.17,28.17,0,0,1,11.4-9.46,36.85,36.85,0,0,1,16-3.43,33.78,33.78,0,0,1,19.1,5.33,27.22,27.22,0,0,1,11.1,14.89l-11.94.07a13.62,13.62,0,0,0-4.38-5.94,23.19,23.19,0,0,0-13.81-5,23.6,23.6,0,0,0-9.5,2,18.52,18.52,0,0,0-7.56,5.9,14.77,14.77,0,0,0-2.95,9.19,15.21,15.21,0,0,0,2.78,9.2,17.59,17.59,0,0,0,7.36,5.83,24.26,24.26,0,0,0,9.87,2A21.05,21.05,0,0,0,492.46,417a18.07,18.07,0,0,0,7.63-7.94h12.22a27.79,27.79,0,0,1-11.23,14.86q-8,5.24-19,5.23a36.84,36.84,0,0,1-16-3.46,28.45,28.45,0,0,1-11.43-9.5,23.91,23.91,0,0,1,0-27Z" transform="translate(-87.69 -122.59)"/><path class="cls-2" d="M123,457.37l-8.64,18a3.26,3.26,0,0,1-2.23,1.61,16.8,16.8,0,0,1-3.93.39l0-3.32a4.74,4.74,0,0,0,1.75-.23.71.71,0,0,0,.52-.66,1.67,1.67,0,0,0-.21-.72L110,472l-7.59-14.59h3.81l6.78,14.1,6.21-14.1Z" transform="translate(-87.69 -122.59)"/><path class="cls-2" d="M136.73,457.77a8.16,8.16,0,0,1,3.33,2.85,7.54,7.54,0,0,1,0,8.16,8.08,8.08,0,0,1-3.33,2.85,10.71,10.71,0,0,1-4.77,1,11.22,11.22,0,0,1-4.77-1,9,9,0,0,1-3.55-2.87,6.87,6.87,0,0,1,0-8.1,9,9,0,0,1,3.54-2.87,11.16,11.16,0,0,1,4.78-1A10.85,10.85,0,0,1,136.73,457.77Zm-.55,11.12a6,6,0,0,0,0-8.36,6.48,6.48,0,0,0-4.19-1.35,8.28,8.28,0,0,0-3,.56,5,5,0,0,0-3.24,5,5.2,5.2,0,0,0,.9,3.15,5.3,5.3,0,0,0,2.33,1.8,8,8,0,0,0,3,.57A6.59,6.59,0,0,0,136.18,468.89Z" transform="translate(-87.69 -122.59)"/><path class="cls-2" d="M156.28,457.37h3.38v14.72h-3.38v-2q-2.22,2.52-6.64,2.52A5.71,5.71,0,0,1,145,470.5c-1.12-1.39-1.69-3.74-1.69-7.06v-6.07h3.38v6a10.57,10.57,0,0,0,.92,4.66c.61,1.26,1.88,1.88,3.81,1.88s3.29-.63,3.93-1.9a10.69,10.69,0,0,0,1-4.82Z" transform="translate(-87.69 -122.59)"/><path class="cls-2" d="M165.41,459.63A6.84,6.84,0,0,1,168,458a14.76,14.76,0,0,1,3.65-.79v3.26h-3a2.71,2.71,0,0,0-2.53,1.06,5.89,5.89,0,0,0-.66,2.92v7.67h-3.38V457.37h2.81Z" transform="translate(-87.69 -122.59)"/><path class="cls-2" d="M193.38,463.61a18.58,18.58,0,0,1,3.4.27,4.68,4.68,0,0,1,2.4,1.17,3.49,3.49,0,0,1,.95,2.66,4,4,0,0,1-1.4,3.33,6.79,6.79,0,0,1-3.2,1.39,25.66,25.66,0,0,1-4,.28,16.46,16.46,0,0,1-6.16-1.12,4.24,4.24,0,0,1-2.81-4.31l3.38.06a2.3,2.3,0,0,0,1.72,2.17,10.27,10.27,0,0,0,3.87.69,11.24,11.24,0,0,0,4.19-.54,1.79,1.79,0,0,0,1.19-1.7,1.53,1.53,0,0,0-1.27-1.56,11.8,11.8,0,0,0-3.16-.36H191.3a17.11,17.11,0,0,1-6.15-1.05,3.69,3.69,0,0,1-2.58-3.65,3.55,3.55,0,0,1,2.68-3.69,19.65,19.65,0,0,1,6.18-.88,15.58,15.58,0,0,1,6,1.11,4.22,4.22,0,0,1,2.67,4.3l-3.37-.06a2.32,2.32,0,0,0-1.85-2.34,12,12,0,0,0-3.5-.58,15.83,15.83,0,0,0-3.91.41c-1,.27-1.55.83-1.55,1.7a1.87,1.87,0,0,0,1.31,1.74,10.66,10.66,0,0,0,4.09.58Z" transform="translate(-87.69 -122.59)"/><path class="cls-2" d="M217.46,458a4.65,4.65,0,0,1,2.7,4.57v9.51h-3l-.38-2.84a3.77,3.77,0,0,1-1.58,1.5,11,11,0,0,1-2.89,1.15,13.86,13.86,0,0,1-3.47.43,13.46,13.46,0,0,1-4.52-.86,3.6,3.6,0,0,1-2.43-3.78,3.91,3.91,0,0,1,1.05-2.94,5.19,5.19,0,0,1,2.3-1.32,9.14,9.14,0,0,1,2.22-.31q4.66,0,6.47-.07a8.17,8.17,0,0,0,2.34-.29.88.88,0,0,0,.56-.83v-.24a1.72,1.72,0,0,0-.79-1.26,6.24,6.24,0,0,0-2-.93,10.32,10.32,0,0,0-2.71-.35,9.92,9.92,0,0,0-4.13.67,2.46,2.46,0,0,0-1.7,2.36h-3.41a4,4,0,0,1,1.49-3.3,8.48,8.48,0,0,1,3.59-1.69,19,19,0,0,1,4.22-.47A14,14,0,0,1,217.46,458Zm-2.1,9.81a5,5,0,0,0,1.45-3.48c-.89.66-2.69,1-5.41,1a34.24,34.24,0,0,0-3.47.13,4.19,4.19,0,0,0-1.82.53,1.39,1.39,0,0,0-.65,1.15,2,2,0,0,0,1.12,1.62,7.74,7.74,0,0,0,3.55.59C212.65,469.36,214.4,468.85,215.36,467.82Z" transform="translate(-87.69 -122.59)"/><path class="cls-2" d="M232.4,458.61v2.83h-3.35v10.65h-3.38V461.44h-3.22v-2.83h3.22v-1.46c0-2.15.52-3.6,1.57-4.38a5.8,5.8,0,0,1,3.54-1.16,6.32,6.32,0,0,1,1.21.11V455a5.91,5.91,0,0,0-1.93.22,1.25,1.25,0,0,0-.78.93,9.9,9.9,0,0,0-.23,2.42Z" transform="translate(-87.69 -122.59)"/><path class="cls-2" d="M253,464.93H237.67a5.63,5.63,0,0,0,.78,2.58,5.26,5.26,0,0,0,2.08,2,6.91,6.91,0,0,0,3.35.76,7.12,7.12,0,0,0,3-.61,5.51,5.51,0,0,0,2-1.51,2.87,2.87,0,0,0,.72-1.75H253a4.85,4.85,0,0,1-1.08,2.87,8.09,8.09,0,0,1-3.16,2.43,11.55,11.55,0,0,1-4.94,1,11.29,11.29,0,0,1-4.76-1,8.58,8.58,0,0,1-3.48-2.84,7,7,0,0,1-1.3-4.15,7.23,7.23,0,0,1,1.26-4.2,8.16,8.16,0,0,1,3.43-2.81,11.55,11.55,0,0,1,4.85-1,11.1,11.1,0,0,1,4.79,1A7.33,7.33,0,0,1,253,464.5Zm-12.89-4.84a5.77,5.77,0,0,0-2.05,2.71h11.35a5,5,0,0,0-1.8-2.71,6,6,0,0,0-3.74-1A6.36,6.36,0,0,0,240.12,460.09Z" transform="translate(-87.69 -122.59)"/><path class="cls-2" d="M260.15,457.37H263v2.83h-2.81v11.89h-3.38V460.2h-2.95v-2.83h2.95v-3.19l3.38-2.52Z" transform="translate(-87.69 -122.59)"/><path class="cls-2" d="M285.06,457.37l-8.65,18a3.21,3.21,0,0,1-2.23,1.61,16.68,16.68,0,0,1-3.93.39l0-3.32a4.77,4.77,0,0,0,1.75-.23.72.72,0,0,0,.51-.66,1.64,1.64,0,0,0-.2-.72L272,472l-7.6-14.59h3.81l6.78,14.1,6.22-14.1Z" transform="translate(-87.69 -122.59)"/><path class="cls-2" d="M299.51,455h-3.37V452.1h3.37Zm0,.78h-3.37v16.35h3.37Z" transform="translate(-87.69 -122.59)"/><path class="cls-2" d="M311.94,463.61a18.7,18.7,0,0,1,3.41.27,4.69,4.69,0,0,1,2.39,1.17,3.49,3.49,0,0,1,1,2.66,4,4,0,0,1-1.41,3.33,6.74,6.74,0,0,1-3.2,1.39,25.52,25.52,0,0,1-4,.28,16.39,16.39,0,0,1-6.16-1.12,4.23,4.23,0,0,1-2.81-4.31l3.37.06a2.3,2.3,0,0,0,1.72,2.17,10.32,10.32,0,0,0,3.88.69,11.18,11.18,0,0,0,4.18-.54,1.78,1.78,0,0,0,1.19-1.7,1.53,1.53,0,0,0-1.27-1.56,11.74,11.74,0,0,0-3.16-.36h-1.19a17.09,17.09,0,0,1-6.14-1.05,3.69,3.69,0,0,1-2.58-3.65,3.55,3.55,0,0,1,2.67-3.69,19.76,19.76,0,0,1,6.19-.88,15.56,15.56,0,0,1,6,1.11,4.22,4.22,0,0,1,2.68,4.3l-3.38-.06a2.32,2.32,0,0,0-1.85-2.34,11.91,11.91,0,0,0-3.5-.58,15.74,15.74,0,0,0-3.9.41c-1,.27-1.56.83-1.56,1.7a1.87,1.87,0,0,0,1.31,1.74,10.72,10.72,0,0,0,4.1.58Z" transform="translate(-87.69 -122.59)"/><path class="cls-2" d="M344.19,457.77a8.16,8.16,0,0,1,3.33,2.85,7.54,7.54,0,0,1,0,8.16,8.08,8.08,0,0,1-3.33,2.85,10.71,10.71,0,0,1-4.77,1,11.22,11.22,0,0,1-4.77-1,9,9,0,0,1-3.55-2.87,6.87,6.87,0,0,1,0-8.1,9,9,0,0,1,3.54-2.87,11.16,11.16,0,0,1,4.78-1A10.85,10.85,0,0,1,344.19,457.77Zm-.55,11.12a6,6,0,0,0,0-8.36,6.48,6.48,0,0,0-4.19-1.35,8.28,8.28,0,0,0-3,.56,5,5,0,0,0-3.24,5,5.2,5.2,0,0,0,.9,3.15,5.3,5.3,0,0,0,2.33,1.8,8,8,0,0,0,3,.57A6.59,6.59,0,0,0,343.64,468.89Z" transform="translate(-87.69 -122.59)"/><path class="cls-2" d="M363.74,457.37h3.38v14.72h-3.38v-2c-1.48,1.68-3.69,2.52-6.65,2.52a5.7,5.7,0,0,1-4.66-2.08c-1.12-1.39-1.69-3.74-1.69-7.06v-6.07h3.38v6A10.57,10.57,0,0,0,355,468c.61,1.26,1.88,1.88,3.81,1.88s3.29-.63,3.93-1.9a10.69,10.69,0,0,0,1-4.82Z" transform="translate(-87.69 -122.59)"/><path class="cls-2" d="M372.87,459.63a6.84,6.84,0,0,1,2.57-1.66,14.76,14.76,0,0,1,3.65-.79v3.26h-3a2.72,2.72,0,0,0-2.53,1.06,5.89,5.89,0,0,0-.66,2.92v7.67h-3.38V457.37h2.81Z" transform="translate(-87.69 -122.59)"/><path class="cls-2" d="M408.51,465.07a8.47,8.47,0,0,1-.92,3.66,7.11,7.11,0,0,1-2.47,2.78,6.67,6.67,0,0,1-3.77,1.07q-4.67,0-7.13-2.33v7h-3.38V457.37h2.81l.43,2.16q2.55-2.49,7.27-2.49a6.65,6.65,0,0,1,3.69,1,7.18,7.18,0,0,1,2.53,2.81,8.9,8.9,0,0,1,.94,4v.19Zm-6.06,4.3a5.36,5.36,0,0,0,1.86-2.05,5.53,5.53,0,0,0,.66-2.39,6.45,6.45,0,0,0-.61-2.63,5,5,0,0,0-1.81-2.08,5.41,5.41,0,0,0-3.09-.83,4.93,4.93,0,0,0-2.73.77,5.46,5.46,0,0,0-1.85,2,5.38,5.38,0,0,0-.66,2.58,5.73,5.73,0,0,0,.65,2.73,5.06,5.06,0,0,0,1.85,2,5.62,5.62,0,0,0,5.73-.09Z" transform="translate(-87.69 -122.59)"/><path class="cls-2" d="M414,459.63a6.76,6.76,0,0,1,2.57-1.66,14.67,14.67,0,0,1,3.64-.79v3.26h-3a2.74,2.74,0,0,0-2.53,1.06,5.89,5.89,0,0,0-.66,2.92v7.67h-3.38V457.37h2.81Z" transform="translate(-87.69 -122.59)"/><path class="cls-2" d="M425.89,455h-3.38V452.1h3.38Zm0,.78h-3.38v16.35h3.38Z" transform="translate(-87.69 -122.59)"/><path class="cls-2" d="M442.33,457.77a8.13,8.13,0,0,1,3.32,2.85,7.54,7.54,0,0,1,0,8.16,8.06,8.06,0,0,1-3.32,2.85,10.77,10.77,0,0,1-4.77,1,11.19,11.19,0,0,1-4.77-1,9,9,0,0,1-3.55-2.87,6.83,6.83,0,0,1,0-8.1,9,9,0,0,1,3.54-2.87,11.13,11.13,0,0,1,4.78-1A10.91,10.91,0,0,1,442.33,457.77Zm-.56,11.12a6,6,0,0,0,0-8.36,6.45,6.45,0,0,0-4.18-1.35,8.2,8.2,0,0,0-3,.56,5.57,5.57,0,0,0-2.34,8.12,5.27,5.27,0,0,0,2.32,1.8,8,8,0,0,0,3,.57A6.56,6.56,0,0,0,441.77,468.89Z" transform="translate(-87.69 -122.59)"/><path class="cls-2" d="M452.2,459.63a6.84,6.84,0,0,1,2.57-1.66,14.76,14.76,0,0,1,3.65-.79v3.26h-3a2.72,2.72,0,0,0-2.53,1.06,5.89,5.89,0,0,0-.66,2.92v7.67h-3.38V457.37h2.81Z" transform="translate(-87.69 -122.59)"/><path class="cls-2" d="M464.09,455h-3.38V452.1h3.38Zm0,.78h-3.38v16.35h3.38Z" transform="translate(-87.69 -122.59)"/><path class="cls-2" d="M472.71,457.37h2.81v2.83h-2.81v11.89h-3.38V460.2h-2.94v-2.83h2.94v-3.19l3.38-2.52Z" transform="translate(-87.69 -122.59)"/><path class="cls-2" d="M497.62,457.37l-8.64,18a3.26,3.26,0,0,1-2.23,1.61,16.8,16.8,0,0,1-3.93.39l0-3.32a4.84,4.84,0,0,0,1.76-.23.72.72,0,0,0,.51-.66,1.79,1.79,0,0,0-.2-.72l-.26-.52L477,457.37h3.81l6.78,14.1,6.21-14.1Z" transform="translate(-87.69 -122.59)"/></svg>